<svg width="48" height="48" viewBox="0 0 24 24" fill="none" xmlns="http://www.w3.org/2000/svg">
  <path d="M12 17C13.1046 17 14 16.1046 14 15C14 13.8954 13.1046 13 12 13C10.8954 13 10 13.8954 10 15C10 16.1046 10.8954 17 12 17Z" fill="#135bec"/>
  <path d="M18 10V8C18 4.68629 15.3137 2 12 2C8.68629 2 6 4.68629 6 8V10C4.89543 10 4 10.8954 4 12V20C4 21.1046 4.89543 22 6 22H18C19.1046 22 20 21.1046 20 20V12C20 10.8954 19.1046 10 18 10ZM8 8C8 5.79086 9.79086 4 12 4C14.2091 4 16 5.79086 16 8V10H8V8Z" fill="#135bec"/>
</svg>
